<?xml version="1.0" encoding="UTF-8" standalone="no"?>
<svg
   viewBox="0 0 24 24"
   version="1.1"
   id="svg1"
   sodipodi:docname="ModeSelect.svg"
   inkscape:export-filename="ModeSelect.png"
   inkscape:export-xdpi="1024"
   inkscape:export-ydpi="1024"
   inkscape:version="1.3.2 (091e20e, 2023-11-25, custom)"
   xmlns:inkscape="http://www.inkscape.org/namespaces/inkscape"
   xmlns:sodipodi="http://sodipodi.sourceforge.net/DTD/sodipodi-0.dtd"
   xmlns="http://www.w3.org/2000/svg"
   xmlns:svg="http://www.w3.org/2000/svg">
  <defs
     id="defs1" />
  <sodipodi:namedview
     id="namedview1"
     pagecolor="#ffffff"
     bordercolor="#000000"
     borderopacity="0.25"
     inkscape:showpageshadow="2"
     inkscape:pageopacity="0.0"
     inkscape:pagecheckerboard="0"
     inkscape:deskcolor="#d1d1d1"
     showgrid="false"
     inkscape:zoom="32.916667"
     inkscape:cx="11.98481"
     inkscape:cy="12"
     inkscape:window-width="1920"
     inkscape:window-height="1017"
     inkscape:window-x="-8"
     inkscape:window-y="-8"
     inkscape:window-maximized="1"
     inkscape:current-layer="svg1" />
  <path
     d="M 13.64,21.97 C 13.14,22.21 12.54,22 12.31,21.5 L 10.13,16.76 7.62,18.78 C 7.45,18.92 7.24,19 7,19 A 1,1 0 0 1 6,18 V 3 A 1,1 0 0 1 7,2 c 0.24,0 0.47,0.09 0.64,0.23 l 0.01,-0.01 11.49,9.64 c 0.43,0.36 0.48,0.99 0.13,1.41 -0.15,0.18 -0.36,0.3 -0.57,0.34 l -3.16,0.62 2.2,4.73 c 0.26,0.5 0.02,1.09 -0.48,1.32 z"
     id="path1"
     style="display:none" />
  <path
     style="fill:#607d8b;fill-opacity:1;stroke-width:0.000911392"
     d="M 12.987342,22.027431 C 12.81734,21.986309 12.653607,21.890809 12.516456,21.752777 12.39357,21.629102 12.274088,21.384801 11.334807,19.336709 10.76009,18.083544 10.25387,16.986079 10.209875,16.897898 l -0.07999,-0.160331 -1.3041394,1.048547 c -0.7172766,0.576701 -1.366247,1.078699 -1.4421566,1.115551 -0.1921246,0.09327 -0.5643433,0.095 -0.766139,0.0036 C 6.4173979,18.814573 6.2131769,18.615268 6.1145459,18.414426 L 6.0303797,18.243038 V 10.496203 2.7493671 L 6.098879,2.6103625 C 6.2099264,2.3850152 6.3645723,2.2289993 6.5839385,2.1210056 c 0.1744286,-0.085871 0.2318348,-0.099003 0.425368,-0.097303 0.1932096,0.0017 0.2515171,0.016251 0.4274633,0.1066965 0.1535465,0.078931 1.6032412,1.2784622 5.8847492,4.8692597 3.124557,2.6204905 5.747516,4.8278392 5.828799,4.9052202 0.307963,0.293178 0.403619,0.697889 0.25735,1.088827 -0.07936,0.212117 -0.321185,0.463777 -0.517065,0.538099 -0.07211,0.02736 -0.853506,0.191863 -1.736435,0.365562 -0.882929,0.173699 -1.610859,0.32135 -1.617623,0.328113 -0.0068,0.0068 0.502845,1.118545 1.132462,2.470624 l 1.14476,2.458326 0.002,0.227848 c 0.0017,0.190532 -0.01196,0.256223 -0.0831,0.401092 -0.162033,0.329962 -0.197447,0.350607 -2.226878,1.298174 -1.01754,0.475103 -1.918427,0.888201 -2.001972,0.917996 -0.156381,0.05577 -0.356513,0.06658 -0.516455,0.02789 z"
     id="path2" />
</svg>
